<?xml version="1.0" standalone="no"?>
<!DOCTYPE svg PUBLIC "-//W3C//DTD SVG 20010904//EN"
 "http://www.w3.org/TR/2001/REC-SVG-20010904/DTD/svg10.dtd">
<svg version="1.0" xmlns="http://www.w3.org/2000/svg"
 width="376.000000pt" height="663.000000pt" viewBox="0 0 376.000000 663.000000"
 preserveAspectRatio="xMidYMid meet">

<g transform="translate(0.000000,663.000000) scale(0.100000,-0.100000)"
fill="#000000" stroke="none">
<path d="M1800 6330 c-8 -5 -24 -12 -35 -16 -19 -7 -19 -7 -1 -12 10 -2 28 5
39 17 23 22 22 25 -3 11z"/>
<path d="M2275 6292 c6 -6 26 -19 45 -29 63 -35 46 -64 -34 -57 -60 5 -176 46
-176 62 0 10 -6 12 -17 7 -29 -11 -147 -19 -141 -9 3 5 -32 10 -78 11 -46 1
-84 -3 -84 -8 0 -15 -28 -10 -38 7 -8 14 -13 13 -48 -10 -21 -14 -66 -46 -98
-71 -45 -35 -65 -45 -83 -40 -13 3 -23 1 -23 -5 0 -6 6 -8 13 -4 18 10 -53
-53 -88 -77 -16 -12 -39 -33 -49 -48 l-19 -26 27 25 28 25 -19 -35 c-17 -30
-45 -53 -90 -76 -7 -3 -11 -9 -8 -14 2 -4 -19 -29 -48 -56 -57 -53 -105 -111
-136 -168 -25 -44 -26 -50 -6 -42 18 6 19 -6 5 -54 -7 -24 -6 -36 2 -41 9 -6
8 -17 -4 -46 -23 -52 -41 -182 -41 -279 1 -91 33 -236 67 -299 17 -33 21 -58
22 -140 1 -94 14 -176 33 -200 13 -16 23 -175 22 -333 -1 -162 7 -190 62 -218
59 -31 73 -68 32 -84 -29 -11 -50 -28 -120 -97 -79 -78 -167 -261 -219 -452
-13 -47 -33 -112 -45 -143 -26 -72 -27 -133 -1 -233 24 -93 25 -131 5 -139 -8
-3 -37 -8 -64 -12 l-50 -6 -11 -57 c-7 -31 -20 -90 -30 -131 -10 -41 -20 -93
-22 -115 l-2 -40 49 2 c28 1 79 11 114 23 76 24 158 26 230 4 76 -22 349 -164
441 -229 74 -52 153 -132 179 -182 6 -12 11 -49 11 -82 0 -49 -4 -65 -26 -90
-14 -18 -42 -35 -65 -41 -21 -6 -39 -13 -39 -16 0 -2 18 -39 41 -82 37 -70 41
-82 36 -133 -6 -72 -27 -110 -71 -134 -20 -11 -36 -20 -36 -20 0 0 9 -24 20
-53 26 -69 25 -127 -2 -182 -25 -49 -58 -72 -131 -92 -39 -10 -52 -10 -68 1
-12 7 -24 10 -27 7 -3 -3 0 -6 6 -6 6 0 21 -19 33 -42 26 -51 23 -135 -8 -176
-29 -40 -134 -93 -198 -99 -74 -8 -168 13 -196 43 -26 28 -42 30 -60 8 -13
-16 -54 -16 -91 0 -13 6 -15 3 -11 -13 5 -21 -11 -29 -22 -11 -3 6 -12 10 -18
10 -7 0 -6 -4 3 -10 23 -15 -3 -12 -43 5 -27 11 -36 12 -40 2 -3 -8 -15 -2
-34 16 -19 18 -36 25 -46 21 -9 -3 -15 -10 -12 -14 3 -4 -2 -11 -11 -14 -8 -3
-13 -10 -10 -14 12 -19 -32 -37 -94 -39 -77 -3 -159 18 -185 47 -10 11 -24 19
-31 16 -7 -3 -15 3 -17 12 -4 16 -5 15 -6 0 -1 -16 -3 -16 -21 2 -11 11 -20
23 -20 28 0 4 -10 12 -22 17 -12 6 -25 21 -29 35 -3 14 -10 24 -16 23 -6 -1
-13 10 -16 25 -3 15 -17 40 -31 55 -14 16 -26 36 -26 45 0 9 -7 26 -15 36 -8
10 -12 23 -9 27 3 5 -1 6 -9 3 -10 -3 -17 4 -22 23 -3 15 -11 31 -17 34 -5 3
-12 26 -15 50 -3 24 -13 54 -20 66 -12 18 -13 35 -5 85 6 35 13 71 17 81 4 9
3 17 -3 17 -17 0 -20 38 -5 60 13 19 14 24 2 32 -10 7 -11 11 -2 14 7 3 9 12
6 20 -3 8 -1 14 5 14 5 0 12 19 16 41 7 41 49 99 72 99 7 0 14 9 17 21 3 12
10 18 16 14 6 -3 11 1 11 9 0 10 6 13 15 10 9 -4 15 -1 15 8 0 12 21 27 60 43
8 4 23 24 33 46 10 21 23 36 28 33 6 -3 7 4 4 19 -5 18 -2 28 11 35 11 6 15
17 11 32 -4 15 -2 20 8 16 21 -8 25 5 10 35 -15 27 -6 47 14 35 5 -3 14 7 19
23 8 24 8 29 -2 25 -10 -4 -12 2 -8 21 3 16 0 30 -8 35 -9 6 -9 12 -1 29 10
17 9 26 -4 43 -17 26 -20 84 -4 93 5 4 22 32 36 63 14 32 32 64 40 73 7 9 13
20 12 25 -1 5 3 23 10 39 6 17 22 55 34 85 12 30 31 67 43 82 24 29 39 81 29
97 -3 6 3 19 14 30 11 11 17 22 14 25 -4 3 -1 6 5 6 36 0 140 298 111 316 -5
3 -9 -4 -9 -15 0 -51 -37 -152 -90 -244 -32 -56 -72 -138 -89 -182 -17 -44
-37 -87 -44 -96 -11 -15 -125 -37 -277 -54 -30 -4 -89 -19 -130 -34 l-75 -27
-3 -1362 -2 -1362 1880 0 1880 0 0 1308 0 1307 -117 33 c-65 18 -145 37 -178
42 -45 8 -68 18 -95 43 -54 51 -110 91 -164 118 -73 36 -103 68 -111 120 -10
64 -35 110 -75 136 -62 40 -62 40 -53 101 8 55 8 122 4 372 -2 114 -12 185
-28 200 -4 5 -38 6 -75 3 -53 -4 -69 -10 -73 -24 -3 -9 -18 -22 -33 -27 -15
-6 -36 -13 -46 -18 -16 -6 -13 2 12 39 18 25 32 48 32 51 0 2 -22 -17 -49 -43
-39 -38 -63 -52 -122 -69 -41 -12 -87 -28 -104 -34 -96 -38 -440 -4 -492 48
-8 8 -22 14 -30 14 -9 0 -13 3 -10 6 3 4 -5 16 -19 27 -14 11 -22 23 -17 26 5
3 6 17 2 31 -5 17 -7 19 -8 7 -1 -11 -6 -15 -12 -11 -6 3 -15 0 -20 -7 -7 -11
-9 -10 -9 4 0 10 7 25 15 34 10 9 14 27 12 48 -5 39 12 51 80 58 23 3 50 12
58 21 9 9 23 16 31 16 8 0 14 5 14 11 0 5 -4 8 -9 4 -5 -3 -18 6 -29 19 -10
14 -34 32 -53 41 -19 9 -42 31 -51 50 l-16 33 41 7 c23 4 139 8 257 9 119 1
221 5 227 9 6 4 23 3 38 -3 23 -9 26 -8 21 6 -3 8 -6 23 -6 32 0 12 -3 13 -8
5 -7 -11 -99 -26 -162 -26 -35 -1 -109 11 -150 23 -19 5 -61 10 -93 10 -66 0
-127 24 -127 49 0 9 11 40 25 69 13 28 21 52 18 52 -3 0 0 7 7 15 7 8 10 15 6
15 -3 0 5 17 19 39 l26 38 -27 49 c-43 80 -48 88 -70 119 -27 38 -38 106 -22
139 6 15 14 26 17 26 28 0 80 197 65 247 -4 15 -8 33 -9 40 0 6 -8 20 -18 30
-19 21 -23 38 -7 28 6 -3 10 -4 10 0 0 17 -60 92 -78 96 -34 9 -42 12 -42 17
0 3 8 15 18 26 16 20 16 20 -1 7 -31 -24 -29 -4 3 33 18 20 36 34 40 31 21
-13 98 126 106 190 2 17 5 36 6 43 1 6 5 12 9 12 5 0 9 28 11 63 3 54 6 62 23
62 11 1 19 6 17 13 -2 11 24 17 56 13 6 -1 12 4 12 10 0 7 3 10 6 7 3 -3 8
-36 11 -72 5 -72 -14 -132 -55 -169 -11 -11 -18 -25 -16 -32 7 -17 37 6 66 50
18 27 19 28 12 5 -8 -29 -34 -79 -70 -135 -20 -31 -22 -35 -6 -20 35 33 90
134 97 176 4 21 11 39 17 39 6 0 7 21 3 59 -6 49 -4 59 10 65 9 3 21 4 26 1 5
-4 6 1 3 9 -7 19 -21 21 -27 4 -2 -8 -8 -9 -13 -4 -5 5 -4 11 4 13 6 3 12 12
12 20 0 12 7 14 33 8 32 -8 71 -9 97 -3 21 5 23 -28 6 -64 -21 -41 -20 -41 9
-22 20 13 28 14 40 4 8 -7 15 -19 15 -26 0 -8 6 -14 13 -14 8 0 7 -4 -3 -10
-13 -9 -13 -12 3 -21 9 -5 17 -19 17 -31 0 -13 5 -18 14 -15 15 6 26 -12 26
-44 0 -24 25 -25 40 -1 10 15 11 13 6 -8 -2 -14 -8 -43 -12 -65 -8 -48 -19
-72 -47 -103 -22 -24 -31 -52 -16 -52 4 0 6 -7 3 -15 -5 -11 -2 -13 10 -9 13
5 15 2 7 -17 -7 -22 -18 -25 -121 -39 -105 -14 -113 -17 -126 -43 -8 -15 -17
-27 -20 -27 -3 0 -3 4 1 9 3 5 1 12 -4 15 -10 7 -21 -16 -21 -45 0 -12 7 -19
20 -19 11 0 20 -4 20 -8 0 -4 35 -7 78 -6 42 1 85 -3 95 -8 13 -7 24 -6 35 4
21 17 223 17 265 -1 16 -6 35 -11 43 -11 8 0 17 -6 20 -14 8 -21 94 -43 94
-25 0 11 -85 96 -101 101 -11 4 -10 14 4 54 12 36 16 40 12 17 -2 -18 0 -35 5
-38 6 -3 10 -1 10 4 0 6 4 11 9 11 5 0 8 -8 7 -17 -1 -13 5 -17 20 -16 14 1
24 -6 32 -25 9 -23 10 -19 7 33 l-4 60 19 -49 c11 -27 28 -57 39 -68 30 -27
48 -106 61 -270 12 -137 5 -295 -16 -408 -3 -14 9 2 27 35 17 33 35 62 38 65
4 3 12 16 19 30 7 14 10 17 8 8 -7 -24 3 -23 25 4 17 19 24 51 20 86 -1 6 3
12 9 12 5 0 10 11 10 24 0 28 19 86 35 106 6 8 17 35 24 60 7 25 17 59 23 75
26 78 36 166 33 313 l-3 153 20 -18 c21 -18 21 -18 14 7 -5 14 -15 50 -23 79
-8 30 -21 65 -29 76 -15 24 -38 98 -49 159 -4 24 -16 47 -31 58 -13 11 -23 22
-21 26 1 4 -17 25 -41 46 -23 21 -48 50 -55 64 -11 24 -78 80 -122 102 -11 6
-34 19 -50 29 -30 18 -145 51 -178 51 -19 0 -87 36 -102 54 -13 16 -147 64
-162 59 -8 -3 -13 4 -13 16 0 16 -6 21 -24 21 -14 0 -28 5 -31 11 -4 6 -13 8
-20 5 -7 -2 -16 -1 -21 3 -14 13 -71 24 -59 13z m-535 -48 c0 -7 -71 -36 -77
-30 -5 5 46 33 65 35 6 1 12 -1 12 -5z m-224 -159 c-11 -8 -22 -12 -25 -9 -6
6 19 24 34 24 6 -1 1 -7 -9 -15z m-70 -61 c-11 -7 -22 -11 -25 -8 -3 3 3 12
13 20 11 7 22 11 25 8 3 -3 -3 -12 -13 -20z m1146 -544 c-12 -12 -22 -18 -22
-14 0 10 34 42 39 38 3 -2 -5 -13 -17 -24z m85 -56 c1 -53 13 -105 23 -99 5 3
11 -3 13 -12 4 -15 5 -14 6 3 1 28 29 52 36 33 2 -8 4 -21 3 -29 -1 -8 0 -26
0 -39 2 -21 4 -22 20 -10 14 11 15 11 5 0 -7 -8 -9 -28 -6 -48 6 -33 5 -35
-14 -25 -11 6 -25 18 -33 26 -7 9 -24 16 -39 16 -15 0 -37 7 -50 17 -13 9 -42
17 -64 19 -46 4 -63 14 -23 14 15 0 25 4 21 10 -3 5 -12 7 -20 3 -22 -8 -18
21 5 42 23 21 39 13 20 -10 -8 -9 -8 -15 -2 -15 11 0 27 38 24 56 -1 6 9 21
23 34 14 13 25 29 25 35 0 6 6 12 13 12 8 0 13 -13 14 -33z m54 -57 c-10 -9
-11 -8 -5 6 3 10 9 15 12 12 3 -3 0 -11 -7 -18z m-1026 -267 c-15 -17 -85 -27
-85 -12 0 18 23 29 60 28 35 -1 37 -2 25 -16z m51 -81 c6 -11 -60 -12 -96 -2
l-25 7 24 6 c31 7 89 1 97 -11z m-35 -225 c3 -2 22 1 43 7 20 5 40 7 46 4 9
-5 -12 -79 -52 -178 -11 -27 -20 -59 -22 -70 -11 -92 -32 -124 -103 -159 -35
-16 -63 -36 -63 -43 0 -7 -7 -18 -15 -25 -19 -16 -19 -74 0 -90 8 -6 14 -15
13 -18 -1 -4 5 -20 12 -37 7 -16 15 -60 18 -96 4 -64 3 -66 -19 -65 -15 1 -31
13 -44 33 -11 18 -26 32 -32 33 -7 0 -13 6 -13 13 0 7 -9 23 -20 35 -14 14
-22 40 -25 79 -10 131 -19 188 -32 201 -7 7 -13 22 -13 33 0 11 -5 29 -10 40
-6 10 -11 35 -12 54 -1 20 -5 38 -10 41 -12 8 -8 115 4 131 6 7 7 16 4 21 -7
12 51 54 88 63 29 7 244 1 257 -7z m156 -926 c-3 -8 -6 -5 -6 6 -1 11 2 17 5
13 3 -3 4 -12 1 -19z m-216 -415 c-3 -68 -11 -67 -11 2 0 32 3 55 7 51 4 -3 6
-28 4 -53z m-94 -25 c-3 -7 -5 -2 -5 12 0 14 2 19 5 13 2 -7 2 -19 0 -25z
m103 -155 c-1 -28 -3 -34 -10 -22 -8 14 -3 59 6 59 2 0 4 -17 4 -37z m-3 -95
c-3 -8 -6 -5 -6 6 -1 11 2 17 5 13 3 -3 4 -12 1 -19z m-1327 -939 c0 -5 -4 -9
-10 -9 -5 0 -10 7 -10 16 0 8 5 12 10 9 6 -3 10 -10 10 -16z"/>
<path d="M1525 6180 c-3 -6 1 -7 9 -4 18 7 21 14 7 14 -6 0 -13 -4 -16 -10z"/>
<path d="M2658 6173 c12 -2 30 -2 40 0 9 3 -1 5 -23 4 -22 0 -30 -2 -17 -4z"/>
<path d="M2938 6063 c6 -2 18 -2 25 0 6 3 1 5 -13 5 -14 0 -19 -2 -12 -5z"/>
<path d="M3090 6066 c0 -2 12 -12 28 -21 l27 -18 -19 21 c-17 20 -36 29 -36
18z"/>
<path d="M2099 5463 c-13 -16 -12 -17 4 -4 16 13 21 21 13 21 -2 0 -10 -8 -17
-17z"/>
<path d="M2343 5070 c-25 -11 -48 -31 -57 -49 -18 -34 -21 -55 -6 -46 6 3 10
-1 10 -9 0 -9 5 -16 12 -16 9 0 9 -3 0 -12 -18 -18 -15 -22 23 -42 19 -11 35
-25 35 -33 0 -8 24 -25 53 -38 59 -28 89 -32 81 -11 -4 11 4 13 40 9 36 -4 46
-2 46 9 0 21 83 40 141 32 88 -12 55 17 -71 61 -25 9 -65 23 -90 32 -25 9 -53
24 -62 34 -17 17 -16 18 30 21 l47 4 -46 13 c-25 7 -58 23 -72 37 -31 28 -57
29 -114 4z"/>
<path d="M2695 4943 c11 -12 31 -24 45 -28 30 -9 27 -5 -25 25 -36 21 -38 21
-20 3z"/>
<path d="M2132 4554 c-31 -21 -28 -29 16 -43 52 -18 126 -10 131 14 2 10 -5
25 -15 32 -25 18 -105 16 -132 -3z"/>
<path d="M2245 4460 c-3 -6 1 -7 9 -4 18 7 21 14 7 14 -6 0 -13 -4 -16 -10z"/>
<path d="M2500 4309 c0 -36 57 -126 72 -111 5 5 6 32 2 61 -5 43 -10 52 -30
57 -13 3 -24 10 -24 15 0 5 -4 9 -10 9 -5 0 -10 -14 -10 -31z"/>
<path d="M870 2160 c0 -5 9 -10 20 -10 11 0 20 5 20 10 0 6 -9 10 -20 10 -11
0 -20 -4 -20 -10z"/>
<path d="M1136 1361 c-8 -13 26 -38 62 -46 19 -4 67 -22 109 -41 113 -52 101
-40 -27 26 -137 71 -138 71 -144 61z"/>
</g>
</svg>
