<?xml version="1.0" encoding="UTF-8"?>
<svg xmlns="http://www.w3.org/2000/svg" xmlns:xlink="http://www.w3.org/1999/xlink" width="24px" height="24px" viewBox="0 0 24 24" version="1.1">
<g id="surface1">
<path style=" stroke:none;fill-rule:nonzero;fill:rgb(25.882353%,25.882353%,25.882353%);fill-opacity:1;" d="M 24 12 C 24 18.628906 18.628906 24 12 24 C 5.371094 24 0 18.628906 0 12 C 0 5.371094 5.371094 0 12 0 C 18.628906 0 24 5.371094 24 12 Z M 24 12 "/>
<path style=" stroke:none;fill-rule:nonzero;fill:rgb(100%,100%,100%);fill-opacity:1;" d="M 10.875 6 C 10.117188 6 9.5 6.625 9.5 7.390625 L 9.5 7.5 L 6 7.5 C 5.171875 7.5 4.5 8.171875 4.5 9 L 4.5 16.25 C 4.5 16.457031 4.597656 16.636719 4.730469 16.769531 C 4.863281 16.902344 5.042969 17 5.25 17 L 18.75 17 C 18.957031 17 19.136719 16.902344 19.269531 16.769531 C 19.402344 16.636719 19.5 16.457031 19.5 16.25 L 19.5 9 C 19.5 8.171875 18.828125 7.5 18 7.5 L 14.5 7.5 L 14.5 7.390625 C 14.5 6.625 13.882812 6 13.125 6 Z M 10.875 6.5 L 13.125 6.5 C 13.613281 6.5 14 6.890625 14 7.390625 L 14 7.5 L 10 7.5 L 10 7.390625 C 10 6.890625 10.386719 6.5 10.875 6.5 Z M 6 8 L 7 8 L 7 11 C 6.863281 11 6.75 11.113281 6.75 11.25 L 6.75 11.5 L 6 11.5 C 5.441406 11.5 5 11.058594 5 10.5 L 5 9 C 5 8.441406 5.441406 8 6 8 Z M 7.5 8 L 8.5 8 L 8.5 11 L 7.5 11 Z M 9 8 L 15 8 L 15 11 C 14.863281 11 14.75 11.113281 14.75 11.25 L 14.75 11.5 L 9.25 11.5 L 9.25 11.25 C 9.25 11.113281 9.136719 11 9 11 Z M 15.5 8 L 16.5 8 L 16.5 11 L 15.5 11 Z M 17 8 L 18 8 C 18.558594 8 19 8.441406 19 9 L 19 10.5 C 19 11.058594 18.558594 11.5 18 11.5 L 17.25 11.5 L 17.25 11.25 C 17.25 11.113281 17.136719 11 17 11 Z M 7.25 11.5 L 8.75 11.5 L 8.75 12.5 L 8.25 12.5 L 8.25 12 L 7.75 12 L 7.75 12.5 L 7.25 12.5 Z M 15.25 11.5 L 16.75 11.5 L 16.75 12.5 L 16.25 12.5 L 16.25 12 L 15.75 12 L 15.75 12.5 L 15.25 12.5 Z M 5 11.609375 C 5.265625 11.847656 5.613281 12 6 12 L 6.75 12 L 6.75 12.75 C 6.75 12.886719 6.863281 13 7 13 L 7 16.5 L 5.25 16.5 C 5.1875 16.492188 5.128906 16.464844 5.082031 16.417969 C 5.035156 16.371094 5.007812 16.3125 5 16.25 Z M 19 11.609375 L 19 16.25 C 18.992188 16.3125 18.964844 16.371094 18.917969 16.417969 C 18.871094 16.464844 18.8125 16.492188 18.75 16.5 L 17 16.5 L 17 13 C 17.136719 13 17.25 12.886719 17.25 12.75 L 17.25 12 L 18 12 C 18.386719 12 18.734375 11.847656 19 11.609375 Z M 9.25 12 L 14.75 12 L 14.75 12.75 C 14.75 12.886719 14.863281 13 15 13 L 15 16.5 L 9 16.5 L 9 13 C 9.136719 13 9.25 12.886719 9.25 12.75 Z M 7.5 13 L 8.5 13 L 8.5 16.5 L 7.5 16.5 Z M 15.5 13 L 16.5 13 L 16.5 16.5 L 15.5 16.5 Z M 15.5 13 "/>
</g>
</svg>
